#!OML:ASF H:\Terrain\Patient Classification 1\Walking\liu\liu.ASF
:FULLY-SPECIFIED
:DEGREES
159
root 9.01312 16.4416 4.05758 7.70707 -6.7819 3.02186
lowerback -4.13181 3.39506 -8.57611
upperback -0.514224 4.89883 0.554257
thorax 1.01448 2.42157 5.58421
lowerneck -19.2724 -5.85173 -13.2976
upperneck 17.6179 -7.70523 15.5597
head 9.95 -2.84368 6.64024
rclavicle -3.38431e-014 2.78299e-015
rhumerus -25.1237 19.442 -89.0126
rradius 38.7697
rwrist -15.2014
rhand -29.8899 -22.8933
rfingers 7.12502
rthumb -3.21114 -52.8489
lclavicle -3.38431e-014 2.78299e-015
lhumerus -55.0106 18.1862 59.0665
lradius 10.193
lwrist -32.8026
lhand -13.1143 -27.9828
lfingers 7.12502
lthumb 12.983 1.59326
rfemur -1.72765 -5.35277 14.394
rtibia 62.2845
rfoot 5.49342 -11.259
rtoes -20.403
lfemur -38.7498 6.26434 -27.469
ltibia 39.6352
lfoot -8.56692 2.80984
ltoes -3.63785
160
root 9.03938 16.4866 4.27161 7.80428 -6.47359 2.7007
lowerback -4.15911 3.2383 -7.89802
upperback -0.472426 4.66347 0.607081
thorax 1.16025 2.29879 5.26044
lowerneck -19.3108 -5.83382 -13.4579
upperneck 17.6642 -7.62272 15.5185
head 9.96368 -2.81931 6.66759
rclavicle 9.41742e-015 1.03368e-014
rhumerus -25.4027 19.1501 -89.2157
rradius 38.2445
rwrist -15.492
rhand -30.2757 -24.2592
rfingers 7.12502
rthumb -3.58369 -54.2088
lclavicle 9.41742e-015 1.03368e-014
lhumerus -53.7232 18.5644 60.1525
lradius 10.2304
lwrist -33.0092
lhand -14.6786 -28.3874
lfingers 7.12502
lthumb 11.4747 1.27854
rfemur -3.61498 -5.43811 14.9654
rtibia 64.3675
rfoot 3.16913 -11.7322
rtoes -16.4031
lfemur -37.7586 6.46375 -27.3762
ltibia 39.32
lfoot -9.3162 2.53875
ltoes -6.12992
161
root 9.06453 16.5475 4.49076 7.83619 -6.25839 1.89308
lowerback -4.19296 3.16103 -6.77016
upperback -0.339604 4.51399 0.791556
thorax 1.41103 2.21592 4.8276
lowerneck -19.4297 -5.82655 -13.4144
upperneck 17.7283 -7.59523 15.4199
head 9.99681 -2.80848 6.62917
rclavicle -4.44781e-014 -5.96354e-016
rhumerus -25.8183 18.9321 -89.3933
rradius 37.9419
rwrist -15.9797
rhand -31.4219 -24.0601
rfingers 7.12502
rthumb -4.69053 -53.9881
lclavicle -4.44781e-014 -5.96354e-016
lhumerus -52.1555 19.0105 61.3079
lradius 10.2905
lwrist -32.7803
lhand -15.2183 -27.8976
lfingers 7.12502
lthumb 10.9542 1.79667
rfemur -5.43732 -5.28803 16.1585
rtibia 66.0999
rfoot 1.31959 -12.0709
rtoes -14.2832
lfemur -36.5925 6.47975 -26.5602
ltibia 38.9431
lfoot -10.0633 2.43348
ltoes -6.56825
162
root 9.08844 16.6165 4.7183 7.88657 -6.2221 1.65
lowerback -4.30679 3.08019 -6.29231
upperback -0.30681 4.39159 0.863047
thorax 1.55492 2.15149 4.64036
lowerneck -19.2078 -5.67763 -13.4517
upperneck 17.5926 -7.41133 15.5364
head 9.8841 -2.72419 6.7042
rclavicle -1.54804e-014 -2.06736e-014
rhumerus -26.6499 18.4161 -89.572
rradius 37.9184
rwrist -16.2093
rhand -31.8825 -22.4889
rfingers 7.12502
rthumb -5.13527 -52.4067
lclavicle -1.54804e-014 -2.06736e-014
lhumerus -50.5108 18.6802 63.2523
lradius 10.5286
lwrist -31.0807
lhand -14.7087 -27.2127
lfingers 7.12502
lthumb 11.4457 2.45484
rfemur -7.46164 -5.24075 16.6925
rtibia 67.592
rfoot 0.36783 -11.8799
rtoes -15.6044
lfemur -35.3629 6.47909 -26.361
ltibia 38.4875
lfoot -10.778 2.37248
ltoes -5.71773
163
root 9.10964 16.6663 4.92956 7.96317 -5.9737 1.82233
lowerback -4.29898 2.84663 -6.28311
upperback -0.382359 4.07711 0.858248
thorax 1.51261 1.99781 4.61546
lowerneck -19.0048 -5.48479 -13.4269
upperneck 17.6032 -7.16056 15.4906
head 9.80403 -2.61925 6.72239
rclavicle 3.92351e-014 -5.96354e-015
rhumerus -27.5663 17.9402 -89.8083
rradius 37.8503
rwrist -16.2489
rhand -31.9431 -22.4747
rfingers 7.12502
rthumb -5.1938 -52.3911
lclavicle 3.92351e-014 -5.96354e-015
lhumerus -49.1174 18.6345 64.8336
lradius 10.8143
lwrist -29.9044
lhand -14.628 -27.2945
lfingers 7.12502
lthumb 11.5235 2.36877
rfemur -9.55687 -5.31184 16.8539
rtibia 68.9044
rfoot -0.848987 -11.7299
rtoes -15.4094
lfemur -34.3459 6.2485 -26.5931
ltibia 38.0415
lfoot -11.4691 2.2189
ltoes -4.40544
164
root 9.12111 16.7116 5.10721 8.19245 -5.33752 1.40887
lowerback -4.16499 2.49814 -5.72735
upperback -0.417792 3.57477 0.994935
thorax 1.4886 1.75174 4.4182
lowerneck -19.5609 -5.45415 -12.9521
upperneck 18.1613 -7.10722 14.8551
head 10.0459 -2.601 6.42841
rclavicle -5.04416e-014 -3.97569e-016
rhumerus -28.1479 17.9175 -90.1359
rradius 37.7542
rwrist -16.4721
rhand -32.0661 -25.3998
rfingers 7.12502
rthumb -5.31253 -55.3132
lclavicle -5.04416e-014 -3.97569e-016
lhumerus -47.551 19.4531 65.6672
lradius 10.7979
lwrist -30.1884
lhand -15.0891 -27.7023
lfingers 7.12502
lthumb 11.0788 1.98526
rfemur -11.8234 -5.46845 17.954
rtibia 69.8633
rfoot -2.0694 -11.8731
rtoes -14.5609
lfemur -33.5621 5.77346 -26.0791
ltibia 37.3123
lfoot -11.7168 2.01513
ltoes -3.7142
165
root 9.1267 16.7525 5.2656 8.53073 -4.61172 0.892481
lowerback -3.86017 2.14358 -5.1942
upperback -0.5252 3.05517 1.24019
thorax 1.2823 1.5037 4.33467
lowerneck -20.1456 -5.43472 -12.7447
upperneck 18.7001 -7.0473 14.4908
head 10.3113 -2.57141 6.28459
rclavicle -3.78188e-014 -9.14409e-015
rhumerus -28.7599 18.1345 -90.3145
rradius 37.7818
rwrist -16.8411
rhand -32.0323 -27.6178
rfingers 7.12502
rthumb -5.27996 -57.532
lclavicle -3.78188e-014 -9.14409e-015
lhumerus -45.8476 20.0149 66.9275
lradius 10.834
lwrist -30.1283
lhand -15.0895 -27.5472
lfingers 7.12502
lthumb 11.0784 2.1404
rfemur -14.5356 -5.68869 19.2572
rtibia 70.591
rfoot -2.36576 -11.8409
rtoes -17.4589
lfemur -32.9412 5.17826 -25.3995
ltibia 36.5199
lfoot -11.7744 1.92614
ltoes -3.68718
166
root 9.14892 16.8393 5.51998 8.52797 -4.02654 1.2901
lowerback -4.14154 1.77736 -5.47428
upperback -0.467229 2.59419 1.31361
thorax 1.53582 1.26244 4.56455
lowerneck -20.3287 -5.31797 -12.8958
upperneck 19.0693 -6.83994 14.44
head 10.4471 -2.48431 6.34063
rclavicle 2.84262e-014 1.74931e-014
rhumerus -29.7866 18.2187 -90.3114
rradius 37.947
rwrist -17.159
rhand -31.8493 -27.3062
rfingers 7.12502
rthumb -5.10325 -57.2248
lclavicle 2.84262e-014 1.74931e-014
lhumerus -44.0682 19.4789 69.1998
lradius 11.0657
lwrist -28.8267
lhand -15.3083 -27.3102
lfingers 7.12502
lthumb 10.8674 2.3886
rfemur -15.9658 -6.16156 19.0059
rtibia 70.5964
rfoot -3.16839 -10.8867
rtoes -19.9997
lfemur -31.1852 4.53832 -25.8494
ltibia 35.4679
lfoot -12.3604 2.00289
ltoes -4.46593
167
root 9.16643 16.8887 5.75832 8.4157 -3.62268 1.62822
lowerback -4.29384 1.48406 -5.7118
upperback -0.395991 2.22376 1.3402
thorax 1.72877 1.06764 4.71733
lowerneck -20.1425 -5.07092 -12.9503
upperneck 19.1347 -6.49976 14.4365
head 10.3817 -2.33926 6.40617
rclavicle -2.73329e-015 -1.59028e-015
rhumerus -30.785 18.2582 -90.4168
rradius 38.0179
rwrist -17.5223
rhand -31.7064 -27.8794
rfingers 7.12502
rthumb -4.96525 -57.8012
lclavicle -2.73329e-015 -1.59028e-015
lhumerus -42.0182 17.8764 71.9912
lradius 11.2671
lwrist -26.9544
lhand -16.2775 -27.4916
lfingers 7.12502
lthumb 9.93242 2.25412
rfemur -17.1873 -6.41895 18.877
rtibia 70.6141
rfoot -5.01297 -9.92256
rtoes -19.2065
lfemur -29.504 3.73788 -26.1611
ltibia 34.4535
lfoot -12.8192 2.38917
ltoes -4.49324
168
root 9.18897 16.9419 6.00072 8.20345 -3.20761 1.93629
lowerback -4.47588 1.22581 -5.70119
upperback -0.261847 1.89503 1.21313
thorax 2.01493 0.890955 4.57145
lowerneck -19.7458 -4.79947 -12.8157
upperneck 19.0233 -6.20926 14.5078
head 10.2182 -2.20258 6.44986
rclavicle 2.73329e-015 -5.1684e-015
rhumerus -31.7468 18.1335 -90.6295
rradius 38.0257
rwrist -17.8173
rhand -31.8715 -28.8006
rfingers 7.12502
rthumb -5.12467 -58.7187
lclavicle 2.73329e-015 -5.1684e-015
lhumerus -39.9714 15.4996 74.7804
lradius 11.6675
lwrist -24.8658
lhand -17.0351 -27.692
lfingers 7.12502
lthumb 9.20145 2.08726
rfemur -18.2055 -6.6181 18.7377
rtibia 70.3692
rfoot -6.94171 -8.86978
rtoes -18.2658
lfemur -27.685 2.58528 -26.369
ltibia 33.4101
lfoot -13.5256 2.95116
ltoes -2.37595
